<svg id="visual" viewBox="0 0 960 540" width="960" height="540" xmlns="http://www.w3.org/2000/svg" xmlns:xlink="http://www.w3.org/1999/xlink" version="1.1"><rect x="0" y="0" width="960" height="540" fill="#FFFFFF"></rect><defs><linearGradient id="grad1_0" x1="43.8%" y1="0%" x2="100%" y2="100%"><stop offset="14.444444444444446%" stop-color="#ffffff" stop-opacity="1"></stop><stop offset="85.55555555555554%" stop-color="#ffffff" stop-opacity="1"></stop></linearGradient></defs><defs><linearGradient id="grad2_0" x1="0%" y1="0%" x2="56.3%" y2="100%"><stop offset="14.444444444444446%" stop-color="#ffffff" stop-opacity="1"></stop><stop offset="85.55555555555554%" stop-color="#ffffff" stop-opacity="1"></stop></linearGradient></defs><g transform="translate(960, 0)"><path d="M0 320C-45.7 329 -91.4 338 -134.3 324.3C-177.2 310.6 -217.3 274.1 -231.9 231.9C-246.6 189.7 -235.7 141.8 -246.7 102.2C-257.6 62.6 -290.3 31.3 -323 0L0 0Z" fill="#B4007E"></path></g><g transform="translate(0, 540)"><path d="M0 -327C54.1 -340.8 108.2 -354.6 134.3 -324.3C160.5 -293.9 158.7 -219.4 178.2 -178.2C197.7 -137 238.5 -129 253.1 -104.9C267.8 -80.7 256.4 -40.4 245 0L0 0Z" fill="#B4007E"></path></g></svg>