<svg id="visual" viewBox="0 0 960 540" width="960" height="540" xmlns="http://www.w3.org/2000/svg" xmlns:xlink="http://www.w3.org/1999/xlink" version="1.1"><rect x="0" y="0" width="960" height="540" fill="#FFFFFF"></rect><defs><linearGradient id="grad1_0" x1="43.8%" y1="0%" x2="100%" y2="100%"><stop offset="14.444444444444446%" stop-color="#ffffff" stop-opacity="1"></stop><stop offset="85.55555555555554%" stop-color="#ffffff" stop-opacity="1"></stop></linearGradient></defs><defs><linearGradient id="grad2_0" x1="0%" y1="0%" x2="56.3%" y2="100%"><stop offset="14.444444444444446%" stop-color="#ffffff" stop-opacity="1"></stop><stop offset="85.55555555555554%" stop-color="#ffffff" stop-opacity="1"></stop></linearGradient></defs><g transform="translate(960, 0)"><path d="M0 324C-30.4 280.7 -60.9 237.4 -88.4 213.4C-115.9 189.4 -140.5 184.7 -170.4 170.4C-200.3 156.1 -235.5 132.2 -246.7 102.2C-257.8 72.2 -244.9 36.1 -232 0L0 0Z" fill="#B4007E"></path></g><g transform="translate(0, 540)"><path d="M0 -245C48.8 -279.8 97.5 -314.7 124 -299.3C150.4 -284 154.5 -218.5 183.1 -183.1C211.7 -147.8 264.8 -142.6 282.7 -117.1C300.6 -91.6 283.3 -45.8 266 0L0 0Z" fill="#B4007E"></path></g></svg>