<svg id="visual" viewBox="0 0 960 540" width="960" height="540" xmlns="http://www.w3.org/2000/svg" xmlns:xlink="http://www.w3.org/1999/xlink" version="1.1"><rect x="0" y="0" width="960" height="540" fill="#FFFFFF"></rect><defs><linearGradient id="grad1_0" x1="43.8%" y1="0%" x2="100%" y2="100%"><stop offset="14.444444444444446%" stop-color="#ffffff" stop-opacity="1"></stop><stop offset="85.55555555555554%" stop-color="#ffffff" stop-opacity="1"></stop></linearGradient></defs><defs><linearGradient id="grad2_0" x1="0%" y1="0%" x2="56.3%" y2="100%"><stop offset="14.444444444444446%" stop-color="#ffffff" stop-opacity="1"></stop><stop offset="85.55555555555554%" stop-color="#ffffff" stop-opacity="1"></stop></linearGradient></defs><g transform="translate(960, 0)"><path d="M0 270C-26 263.1 -52 256.3 -80.3 247.3C-108.7 238.3 -139.3 227.1 -145.2 199.8C-151.1 172.6 -132.2 129.2 -152.1 110.5C-172 91.8 -230.7 97.7 -256.8 83.4C-282.9 69.1 -276.4 34.6 -270 0L0 0Z" fill="#B4007E"></path></g><g transform="translate(0, 540)"><path d="M0 -270C32.1 -272.6 64.2 -275.3 83.4 -256.8C102.7 -238.3 109 -198.7 131.7 -181.2C154.3 -163.7 193.3 -168.3 211.2 -153.4C229 -138.5 225.8 -104.2 232.1 -75.4C238.3 -46.6 254.2 -23.3 270 0L0 0Z" fill="#B4007E"></path></g></svg>