<svg width="401" height="81" viewBox="0 0 401 81" fill="none" xmlns="http://www.w3.org/2000/svg">
<g clip-path="url(#clip0_49_14)">
<path fill-rule="evenodd" clip-rule="evenodd" d="M0 6H44V22H22V33H42V48H22V72H0V6Z" fill="url(#paint0_linear_49_14)"/>
<path fill-rule="evenodd" clip-rule="evenodd" d="M56.9779 6L36.8901 72.25H53.4885L56 65H81L83.5115 72.25H100.11L80.0221 6H56.9779ZM69 23L75.9282 45.5H62.0718L69 23Z" fill="url(#paint1_linear_49_14)"/>
<path fill-rule="evenodd" clip-rule="evenodd" d="M102 6H123V6.29829L123.129 6.22372L140 35.4449V6H157V72H132L119 49.4833V72H102V6Z" fill="url(#paint2_linear_49_14)"/>
<path fill-rule="evenodd" clip-rule="evenodd" d="M160 6V72H182V52H190V51.9949C202.748 51.7345 213 41.539 213 29C213 16.2975 202.479 6 189.5 6C189.333 6 189.166 6.00171 189 6.0051V6H160ZM188 37C192.418 37 196 33.6421 196 29.5C196 25.3579 192.418 22 188 22C187.661 22 187.328 22.0197 187 22.058V22H182V37H187V36.942C187.328 36.9803 187.661 37 188 37Z" fill="url(#paint3_linear_49_14)"/>
<path fill-rule="evenodd" clip-rule="evenodd" d="M254.5 81C276.868 81 295 62.8675 295 40.5C295 18.1325 276.868 0 254.5 0C232.132 0 214 18.1325 214 40.5C214 62.8675 232.132 81 254.5 81ZM250.967 16.8039C250.775 15.1745 250.775 15.1745 250.774 15.1746L250.771 15.1749L250.764 15.1758L250.739 15.1788C250.719 15.1813 250.69 15.1849 250.653 15.1897C250.579 15.1992 250.473 15.2134 250.338 15.2326C250.069 15.271 249.685 15.3298 249.216 15.4126C248.279 15.5778 246.988 15.8404 245.577 16.231C242.852 16.9855 239.306 18.3131 237.196 20.6229C235.485 22.4957 234.411 25.3542 233.771 27.5347C233.441 28.6616 233.205 29.6819 233.052 30.4207C232.976 30.7909 232.919 31.0926 232.882 31.304C232.863 31.4098 232.849 31.4932 232.839 31.5516L232.828 31.6199L232.825 31.6394L232.824 31.6453V31.6481C232.824 31.6482 232.823 31.6483 232.873 31.6559L232.445 31.9214C231.091 32.7616 230.265 34.2635 230.265 35.883V36.1893L229.752 36.6214L230.261 37.1805C229.752 36.6214 229.752 36.6213 229.752 36.6214L229.75 36.6229L229.747 36.6255L229.737 36.6342L229.701 36.6649C229.671 36.6912 229.628 36.729 229.574 36.7775C229.466 36.8744 229.314 37.0141 229.133 37.1893C228.772 37.5385 228.292 38.0344 227.818 38.6181C227.346 39.1989 226.865 39.8852 226.517 40.6153C226.172 41.3394 225.932 42.1629 226.017 42.9958C226.091 43.7077 226.399 44.3855 226.768 44.974C227.14 45.5682 227.604 46.1165 228.045 46.5769C228.488 47.0392 228.921 47.4265 229.243 47.6979C229.405 47.834 229.539 47.9421 229.635 48.0169C229.683 48.0544 229.721 48.0836 229.747 48.104L229.779 48.1278L229.788 48.1346L229.792 48.1375C229.792 48.1376 229.793 48.1379 230.265 47.5474L229.792 48.1375L230.338 48.5409C230.567 49.8325 231.326 50.9793 232.445 51.6738L236.826 54.393C240.695 60.4603 247.39 64.4706 255 64.4706C262.374 64.4706 268.888 60.7058 272.805 54.9531L277.555 52.0048C278.779 51.2449 279.573 49.9436 279.713 48.5035L280.207 48.1379L279.735 47.5474C280.207 48.1379 280.207 48.1381 280.207 48.1379L280.212 48.1346L280.221 48.1278L280.253 48.104C280.279 48.0836 280.317 48.0544 280.365 48.0169C280.461 47.9421 280.595 47.834 280.757 47.6979C281.079 47.4265 281.512 47.0392 281.955 46.5769C282.396 46.1165 282.86 45.5682 283.232 44.974C283.601 44.3855 283.909 43.7077 283.983 42.9958C284.068 42.1629 283.828 41.3394 283.483 40.6153C283.135 39.8852 282.654 39.1989 282.182 38.6181C281.708 38.0344 281.228 37.5385 280.867 37.1893C280.686 37.0141 280.534 36.8744 280.426 36.7775C280.372 36.729 280.329 36.6912 280.299 36.6649L280.263 36.6342L280.253 36.6255L280.25 36.6229L280.248 36.6217C280.248 36.6215 280.248 36.6214 279.739 37.1799L280.248 36.6217L279.735 36.1892C279.728 34.7189 279.039 33.3478 277.893 32.4843C277.862 32.3063 277.824 32.103 277.78 31.8781C277.61 31.015 277.347 29.8243 276.969 28.5138C276.237 25.9733 274.993 22.6751 272.958 20.5848C268.899 16.4169 264.636 15.8952 259.651 15.2851C259.359 15.2493 259.065 15.2133 258.768 15.1762C257.163 14.9757 255.157 14.9799 253.611 15.0263C252.826 15.0499 252.135 15.0852 251.641 15.1146C251.393 15.1294 251.194 15.1427 251.056 15.1524C250.987 15.1572 250.933 15.1612 250.896 15.164L250.853 15.1672L250.836 15.1685L250.806 15.1709L250.774 15.1746L250.967 16.8039ZM250.967 16.8039L250.836 15.1685C250.836 15.1685 250.836 15.1685 250.967 16.8039ZM238.082 28.4226L236.713 29.2724C236.783 29.0085 236.859 28.7342 236.941 28.4531C237.563 26.3363 238.471 24.1091 239.641 22.8283C241.072 21.2623 243.8 20.129 246.464 19.3917C247.747 19.0363 248.93 18.7953 249.793 18.6432C250.223 18.5674 250.57 18.5142 250.808 18.4803C250.926 18.4634 251.017 18.4512 251.077 18.4436L251.13 18.4368L251.144 18.4358C251.176 18.4334 251.225 18.4298 251.289 18.4253C251.417 18.4164 251.604 18.4038 251.839 18.3899C252.308 18.3619 252.965 18.3283 253.711 18.3059C255.226 18.2604 257.018 18.2646 258.356 18.4317C258.573 18.4588 258.787 18.4853 258.998 18.5114L259.002 18.512C264.179 19.1537 267.352 19.547 270.585 22.8664C272.013 24.3329 273.081 26.9407 273.794 29.4169C273.853 29.6223 273.91 29.8246 273.963 30.0229L272.39 29.0467C268.437 23.627 262.119 20.1176 255 20.1176C248.158 20.1176 242.056 23.3591 238.082 28.4226ZM227.759 41.9325C227.71 42.2406 227.693 42.5468 227.716 42.8452C227.731 43.0471 227.765 43.2505 227.815 43.4535C227.729 43.2371 227.676 43.0316 227.656 42.8398C227.628 42.5655 227.664 42.2611 227.759 41.9325ZM243.997 44.2801C246.321 44.2801 248.204 42.3536 248.204 39.9772C248.204 37.6007 246.321 35.6743 243.997 35.6743C241.674 35.6743 239.79 37.6007 239.79 39.9772C239.79 42.3536 241.674 44.2801 243.997 44.2801ZM266.974 44.2801C269.297 44.2801 271.181 42.3536 271.181 39.9772C271.181 37.6007 269.297 35.6743 266.974 35.6743C264.65 35.6743 262.767 37.6007 262.767 39.9772C262.767 42.3536 264.65 44.2801 266.974 44.2801ZM261.472 48.8683C261.472 52.3668 258.647 55.2028 255.162 55.2028C251.677 55.2028 248.851 52.3668 248.851 48.8683C248.851 46.9481 249.703 47.5253 251.047 48.4368C252.152 49.186 253.59 50.1611 255.162 50.1611C256.734 50.1611 258.172 49.186 259.277 48.4368C260.621 47.5253 261.472 46.9481 261.472 48.8683Z" fill="url(#paint4_linear_49_14)"/>
<path fill-rule="evenodd" clip-rule="evenodd" d="M320 6H297V72H320V71.9366C320.661 71.9787 321.328 72 322 72C339.673 72 354 57.2254 354 39C354 20.7746 339.673 6 322 6C321.328 6 320.661 6.02134 320 6.06341V6ZM320 23.0716V55.9284C328.133 55.1486 334.5 48.0911 334.5 39.5C334.5 30.9089 328.133 23.8514 320 23.0716Z" fill="url(#paint5_linear_49_14)"/>
<path fill-rule="evenodd" clip-rule="evenodd" d="M396.5 8.00003V25.5C392.833 23.3333 383.8 19.5 377 21.5C370.2 23.5 371.167 26.6667 372.5 28C373.333 29 376.5 31.2 382.5 32C388.705 32.8273 395.595 36.7349 398.072 42.0237C399.934 44.9601 401 48.3669 401 52C401 60.0412 395.78 66.9741 388.252 70.1506C384.903 71.7415 380.706 72.7366 375.5 72.5C364.5 72 356 70.5 355.5 70C355.1 69.6 355.333 58.8333 355.5 53.5C359.167 54.8333 367.7 57.4 372.5 57C378.5 56.5 385 54 379.5 49C375.845 45.6771 373.294 45.225 370.379 44.7086C368.908 44.4479 367.345 44.1708 365.5 43.5C360 41.5 352.5 35 354 21.5C355.2 10.7 369.833 6.6667 377 6.00003C380.833 5.6667 390.1 5.60003 396.5 8.00003Z" fill="url(#paint6_linear_49_14)"/>
</g>
<defs>
<linearGradient id="paint0_linear_49_14" x1="39" y1="40" x2="392" y2="40" gradientUnits="userSpaceOnUse">
<stop stop-color="#F92095"/>
<stop offset="1" stop-color="#7E1BBA"/>
</linearGradient>
<linearGradient id="paint1_linear_49_14" x1="39" y1="40" x2="392" y2="40" gradientUnits="userSpaceOnUse">
<stop stop-color="#F92095"/>
<stop offset="1" stop-color="#7E1BBA"/>
</linearGradient>
<linearGradient id="paint2_linear_49_14" x1="39" y1="40" x2="392" y2="40" gradientUnits="userSpaceOnUse">
<stop stop-color="#F92095"/>
<stop offset="1" stop-color="#7E1BBA"/>
</linearGradient>
<linearGradient id="paint3_linear_49_14" x1="39" y1="40" x2="392" y2="40" gradientUnits="userSpaceOnUse">
<stop stop-color="#F92095"/>
<stop offset="1" stop-color="#7E1BBA"/>
</linearGradient>
<linearGradient id="paint4_linear_49_14" x1="39" y1="40" x2="392" y2="40" gradientUnits="userSpaceOnUse">
<stop stop-color="#F92095"/>
<stop offset="1" stop-color="#7E1BBA"/>
</linearGradient>
<linearGradient id="paint5_linear_49_14" x1="39" y1="40" x2="392" y2="40" gradientUnits="userSpaceOnUse">
<stop stop-color="#F92095"/>
<stop offset="1" stop-color="#7E1BBA"/>
</linearGradient>
<linearGradient id="paint6_linear_49_14" x1="39.0001" y1="40" x2="392" y2="40" gradientUnits="userSpaceOnUse">
<stop stop-color="#F92095"/>
<stop offset="1" stop-color="#7E1BBA"/>
</linearGradient>
<clipPath id="clip0_49_14">
<rect width="401" height="81" fill="white"/>
</clipPath>
</defs>
</svg>
