<svg width="368" height="368" viewBox="0 0 368 368" fill="none" xmlns="http://www.w3.org/2000/svg">
<g clip-path="url(#clip0_49_2)">
<path d="M318 0H50C22.3858 0 0 22.3858 0 50V318C0 345.614 22.3858 368 50 368H318C345.614 368 368 345.614 368 318V50C368 22.3858 345.614 0 318 0Z" fill="url(#paint0_linear_49_2)"/>
<path fill-rule="evenodd" clip-rule="evenodd" d="M45 96H70.6667H96.3333V114.444H70.6667V127.125H94V144.417H70.6667V172.083H45V144.417V127.125V114.444V96Z" fill="white"/>
<path fill-rule="evenodd" clip-rule="evenodd" d="M111.093 96L88.0834 173H107.096L109.973 164.574H138.61L141.487 173H160.5L137.49 96H111.093ZM124.864 115.758L132.801 141.909H116.928L124.864 115.758Z" fill="white"/>
<path fill-rule="evenodd" clip-rule="evenodd" d="M163.25 96H182.8H187.4V96.3439L187.549 96.2579L206.95 129.943V96H226.5V172.083H210.4H206.95H197.75L182.8 146.127V172.083H163.25V112.183V110.321V96Z" fill="white"/>
<path fill-rule="evenodd" clip-rule="evenodd" d="M64.6997 184.917H45V261.917H70.4937V238.583H79.1847H79.7641V238.577C94.5364 238.274 106.417 226.379 106.417 211.75C106.417 196.93 94.2245 184.917 79.1847 184.917C78.9911 184.917 78.798 184.919 78.6053 184.923V184.917H70.4937H64.6997ZM77.4465 221.083C82.5665 221.083 86.717 217.166 86.717 212.333C86.717 207.501 82.5665 203.583 77.4465 203.583C77.0541 203.583 76.6674 203.606 76.2877 203.651V203.583H70.4937V221.083H76.2877V221.016C76.6674 221.06 77.0541 221.083 77.4465 221.083Z" fill="white"/>
<path fill-rule="evenodd" clip-rule="evenodd" d="M154.542 272C180.614 272 201.75 251.069 201.75 225.25C201.75 199.431 180.614 178.5 154.542 178.5C128.469 178.5 107.333 199.431 107.333 225.25C107.333 251.069 128.469 272 154.542 272ZM150.423 197.897C150.2 196.016 150.2 196.016 150.199 196.016L150.195 196.017L150.187 196.018L150.158 196.021C150.134 196.024 150.1 196.028 150.057 196.034C149.971 196.045 149.847 196.061 149.69 196.083C149.377 196.128 148.93 196.196 148.382 196.291C147.29 196.482 145.786 196.785 144.141 197.236C140.964 198.107 136.831 199.639 134.371 202.305C132.377 204.467 131.125 207.767 130.379 210.284C129.994 211.585 129.72 212.762 129.541 213.615C129.452 214.043 129.386 214.391 129.343 214.635C129.321 214.757 129.304 214.853 129.293 214.921L129.28 215L129.276 215.022L129.275 215.029V215.032C129.275 215.032 129.275 215.032 129.332 215.041L128.834 215.348C127.256 216.317 126.292 218.051 126.292 219.92V220.274L125.694 220.773L126.288 221.418C125.694 220.773 125.694 220.773 125.694 220.773L125.692 220.775L125.689 220.778L125.677 220.788L125.635 220.823C125.6 220.853 125.55 220.897 125.487 220.953C125.361 221.065 125.183 221.226 124.973 221.428C124.552 221.831 123.993 222.404 123.44 223.078C122.89 223.748 122.329 224.54 121.924 225.383C121.522 226.219 121.241 227.17 121.341 228.131C121.427 228.953 121.786 229.735 122.216 230.414C122.65 231.1 123.191 231.733 123.705 232.265C124.221 232.798 124.726 233.245 125.102 233.559C125.29 233.716 125.447 233.841 125.558 233.927C125.614 233.97 125.658 234.004 125.689 234.027L125.726 234.055L125.737 234.063L125.741 234.066C125.741 234.067 125.742 234.067 126.292 233.385L125.742 234.067L126.377 234.532C126.645 236.023 127.529 237.347 128.834 238.148L133.94 241.287C138.45 248.291 146.254 252.92 155.125 252.92C163.72 252.92 171.312 248.574 175.878 241.934L181.416 238.53C182.843 237.653 183.767 236.151 183.931 234.489L184.507 234.067L183.957 233.385C184.507 234.067 184.507 234.067 184.508 234.066L184.512 234.063L184.523 234.055L184.56 234.027C184.591 234.004 184.635 233.97 184.691 233.927C184.802 233.841 184.959 233.716 185.148 233.559C185.523 233.245 186.028 232.798 186.544 232.265C187.058 231.733 187.599 231.1 188.033 230.414C188.463 229.735 188.822 228.953 188.908 228.131C189.008 227.17 188.727 226.219 188.325 225.383C187.92 224.54 187.359 223.748 186.809 223.078C186.256 222.404 185.697 221.831 185.276 221.428C185.066 221.226 184.888 221.065 184.762 220.953C184.699 220.897 184.649 220.853 184.614 220.823L184.572 220.788L184.56 220.778L184.557 220.775L184.555 220.773C184.555 220.773 184.555 220.773 183.962 221.418L184.555 220.773L183.957 220.274C183.948 218.577 183.145 216.994 181.81 215.997C181.773 215.792 181.729 215.557 181.677 215.298C181.48 214.301 181.173 212.927 180.732 211.414C179.879 208.482 178.43 204.674 176.057 202.261C171.325 197.45 166.357 196.848 160.546 196.144C160.206 196.103 159.863 196.061 159.517 196.018C157.645 195.787 155.308 195.792 153.505 195.845C152.59 195.872 151.785 195.913 151.209 195.947C150.921 195.964 150.689 195.98 150.527 195.991C150.447 195.996 150.384 196.001 150.341 196.004L150.29 196.008L150.271 196.009L150.235 196.012L150.199 196.016L150.423 197.897ZM150.423 197.897L150.271 196.009C150.271 196.009 150.271 196.009 150.423 197.897ZM135.405 211.309L133.809 212.29C133.89 211.985 133.979 211.668 134.075 211.344C134.799 208.901 135.857 206.33 137.221 204.851C138.889 203.043 142.07 201.735 145.174 200.884C146.67 200.474 148.049 200.196 149.055 200.02C149.556 199.933 149.961 199.871 150.238 199.832C150.376 199.813 150.482 199.799 150.552 199.79L150.614 199.782L150.63 199.781C150.667 199.778 150.724 199.774 150.799 199.769C150.947 199.758 151.166 199.744 151.439 199.728C151.987 199.696 152.753 199.657 153.622 199.631C155.388 199.578 157.477 199.583 159.037 199.776C159.29 199.807 159.539 199.838 159.785 199.868H159.788L159.79 199.869H159.791C165.825 200.61 169.522 201.063 173.29 204.895C174.955 206.588 176.2 209.598 177.032 212.457C177.101 212.694 177.166 212.927 177.228 213.156L175.395 212.029C170.787 205.773 163.423 201.722 155.125 201.722C147.149 201.722 140.037 205.464 135.405 211.309ZM123.371 226.904C123.315 227.259 123.294 227.613 123.321 227.957C123.339 228.19 123.379 228.425 123.436 228.659C123.337 228.409 123.274 228.172 123.251 227.951C123.218 227.634 123.26 227.283 123.371 226.904ZM142.299 229.613C145.008 229.613 147.203 227.39 147.203 224.646C147.203 221.903 145.008 219.68 142.299 219.68C139.591 219.68 137.395 221.903 137.395 224.646C137.395 227.39 139.591 229.613 142.299 229.613ZM169.081 229.613C171.79 229.613 173.985 227.39 173.985 224.646C173.985 221.903 171.79 219.68 169.081 219.68C166.373 219.68 164.178 221.903 164.178 224.646C164.178 227.39 166.373 229.613 169.081 229.613ZM162.669 234.91C162.669 238.948 159.376 242.222 155.313 242.222C151.251 242.222 147.957 238.948 147.957 234.91C147.957 232.693 148.95 233.359 150.517 234.412C151.804 235.276 153.48 236.402 155.313 236.402C157.146 236.402 158.822 235.276 160.11 234.412C161.677 233.359 162.669 232.693 162.669 234.91Z" fill="white"/>
<path fill-rule="evenodd" clip-rule="evenodd" d="M230.215 184.917H203.583V261.917H230.215V261.843C230.981 261.892 231.753 261.917 232.531 261.917C252.994 261.917 269.583 244.68 269.583 223.417C269.583 202.154 252.994 184.917 232.531 184.917C231.753 184.917 230.981 184.942 230.215 184.991V184.917ZM230.215 204.833V243.167C239.632 242.257 247.004 234.023 247.004 224C247.004 213.977 239.632 205.743 230.215 204.833Z" fill="white"/>
<path fill-rule="evenodd" clip-rule="evenodd" d="M318.51 187.421V207.622C314.308 205.121 303.956 200.696 296.163 203.004C288.371 205.313 289.479 208.969 291.007 210.508C291.962 211.662 295.59 214.202 302.466 215.125C309.577 216.08 317.472 220.591 320.311 226.696C322.446 230.086 323.667 234.018 323.667 238.212C323.667 247.495 317.684 255.498 309.058 259.165C305.22 261.001 300.41 262.15 294.444 261.877C281.839 261.299 272.098 259.568 271.525 258.991C271.067 258.529 271.334 246.1 271.525 239.944C275.727 241.483 285.506 244.446 291.007 243.984C297.882 243.407 305.331 240.521 299.028 234.749C294.84 230.913 291.916 230.392 288.576 229.795C286.891 229.494 285.099 229.175 282.985 228.4C276.682 226.092 268.087 218.588 269.806 203.004C271.181 190.537 287.951 185.881 296.163 185.112C300.556 184.727 311.176 184.65 318.51 187.421Z" fill="white"/>
<path opacity="0.7" d="M244.866 121.635C244.415 117.565 248.688 116.924 250.881 117.112C255.111 118.432 260.468 120.128 269.584 126.441C278.701 132.755 283.588 139.257 287.065 144.91C290.542 150.564 295.43 161.589 294.114 163.662C292.798 165.735 291.012 166.583 288.381 166.583C285.749 166.583 283.87 161.118 281.332 154.428C278.795 147.737 273.156 143.026 268.738 138.314C265.204 134.545 256.426 130.273 252.479 128.608C250.129 127.98 245.318 125.706 244.866 121.635Z" fill="white"/>
<path opacity="0.7" d="M250.377 101.985C249.784 96.6329 255.402 95.7904 258.285 96.0382C263.846 97.7728 270.89 100.003 282.876 108.304C294.862 116.605 301.288 125.154 305.86 132.587C310.432 140.021 316.858 154.517 315.128 157.243C313.398 159.968 311.05 161.083 307.59 161.083C304.13 161.083 301.659 153.897 298.322 145.101C294.986 136.304 287.572 130.109 281.764 123.915C277.118 118.959 265.576 113.342 260.386 111.153C257.297 110.327 250.97 107.337 250.377 101.985Z" fill="white"/>
<path opacity="0.7" d="M248.563 137.151C245.631 136.735 243.652 137.878 243.029 138.502C241.61 140.971 242.134 141.045 242.36 143.214C242.585 145.383 247.149 147.1 252.611 150.013C258.073 152.926 262.041 158.832 264.287 161.823C266.533 164.813 266.985 169.151 267.883 170.347C268.782 171.543 271.4 171.915 273.643 171.165C275.438 170.566 275.585 167.524 275.435 166.078C275.184 164.084 273.59 158.765 269.218 153.442C263.753 146.789 252.229 137.672 248.563 137.151Z" fill="white"/>
</g>
<defs>
<linearGradient id="paint0_linear_49_2" x1="184" y1="0" x2="184" y2="368" gradientUnits="userSpaceOnUse">
<stop stop-color="#F92095"/>
<stop offset="1" stop-color="#811CB9"/>
</linearGradient>
<clipPath id="clip0_49_2">
<rect width="368" height="368" fill="white"/>
</clipPath>
</defs>
</svg>
